# xmcd
#
# Track frame offsets:
# 150
# 19455
# 57468
# 97199
# 114984
# 127352
# 157841
# 174982
# 198059
# 224534
# 249680
# 279507
# 304804
#
# Disc length: 4320 seconds
#
#
# Revision: 0
# Processed by: cddbd v1.5.2PL0 Copyright (c) Steve Scherf et al.
# Submitted via: FreeRIP 2.951 
#
DISCID=c010de0d
DTITLE=Miles Davis - Miles Davis - Miles Ultimate CD3
DYEAR=2016
DGENRE=Blues
TTITLE0=Aos Pes Da Cruz
TTITLE1=Baby Won't You Please Come Home
TTITLE2=Mood
TTITLE3=The Pan Piper
TTITLE4=Corcovado (Quiet Nights Of Quiet Stars)
TTITLE5=I Fall In Love Too Easily
TTITLE6=Will O' the Wisp
TTITLE7=Pinocchio
TTITLE8=Circle
TTITLE9=Vonetta
TTITLE10=Fall
TTITLE11=Frelon brun
TTITLE12=In a Silent Way
EXTD=Audio CD (23. September 2016) \nErscheinungsdatum: 23. September 2016 \nAnzahl Disks/Tonträger: 5 \nFormat: Import, Box-Set \nLabel: Sony Music Entertainment \nASIN: B01K0ZT29E
EXTT0=
EXTT1=
EXTT2=
EXTT3=
EXTT4=
EXTT5=
EXTT6=
EXTT7=
EXTT8=
EXTT9=
EXTT10=
EXTT11=
EXTT12=
PLAYORDER=
